<?xml version="1.0" encoding="UTF-8"?>
<!DOCTYPE svg PUBLIC "-//W3C//DTD SVG 1.0//EN" "http://www.w3.org/TR/2001/REC-SVG-20010904/DTD/svg10.dtd">
<!-- Creator: CorelDRAW X7 -->
<?xml-stylesheet href="mail-hero.css" type="text/css"?>
<svg xmlns="http://www.w3.org/2000/svg" xml:space="preserve" width="960px" height="960px" version="1.0" style="shape-rendering:geometricPrecision; text-rendering:geometricPrecision; image-rendering:optimizeQuality; fill-rule:evenodd; clip-rule:evenodd"
viewBox="0 0 96000 96000"
 xmlns:xlink="http://www.w3.org/1999/xlink">
 <g id="Layer_x0020_1">
  <metadata id="CorelCorpID_0Corel-Layer"/>
  <g id="_810376000">
   <g>
    <path class="fil0" d="M51927 74389c440,-271 266,636 -84,281 21,-70 63,-210 84,-281z"/>
   </g>
   <g>
    <g>
     <path class="fil1" d="M58715 8379c1937,-922 4059,-1719 6243,-1489 1394,150 2553,1015 3671,1789 2559,1798 4670,4247 5981,7093 402,871 607,1838 1201,2612 2201,3163 3066,7055 3234,10853 137,3250 -297,6521 -1212,9641 -339,1199 -853,2339 -1263,3516 1519,-695 2845,-1732 4251,-2620 514,-327 1161,-429 1599,-873 552,-524 1150,-1004 1634,-1593 485,-583 982,-1188 1656,-1558 548,-304 1229,-326 1711,-757 947,-795 2470,-966 3494,-224 649,511 790,1440 590,2205 -442,2077 -2048,3631 -3646,4907 -808,691 -1800,1066 -2792,1389 -996,1616 -2500,2808 -3863,4100 -3703,3498 -7521,6996 -12074,9363 -695,338 -1463,496 -2154,850 -146,-60 -292,-115 -438,-168 178,381 402,775 344,1217 -143,1954 -1025,3738 -1683,5555 -880,2163 -1689,4422 -3240,6215 1151,1345 2041,3103 1711,4921 -216,1383 -1292,2373 -2277,3267 -1542,1375 -3069,2802 -4868,3839 -584,347 -1263,512 -1823,898 -20,1631 -497,3215 -1121,4712 -360,774 -781,1626 -1584,2022 -698,218 -1305,-334 -1645,-882 -726,-1059 -664,-2392 -963,-3591 -264,-1106 -571,-2301 -158,-3411 270,-804 1030,-1264 1658,-1766 795,-647 1679,-1252 2176,-2178 543,-971 1311,-1817 1681,-2880 -427,-42 -996,-425 -1328,0 -1654,1829 -3834,3030 -5866,4379 -1897,1246 -3600,2771 -5549,3942 -510,316 -1073,546 -1559,903 -440,453 -711,1043 -1170,1481 -1141,1139 -2305,2262 -3299,3534 -503,644 -1218,1283 -2089,1241 -679,-17 -1070,-692 -1180,-1288 -196,-1328 100,-2658 165,-3984 68,-1094 245,-2310 1127,-3065 823,-841 2014,-1065 3130,-1230 474,-1041 1191,-1944 1990,-2756 1569,-1611 2910,-3422 4293,-5190 349,-526 835,-983 1043,-1583 -205,-620 -472,-1218 -595,-1861 -1091,384 -2180,765 -3273,1140 -188,1981 -1533,3597 -3043,4779 -1971,1596 -4257,2770 -6118,4506 -1166,1098 -2348,2445 -4021,2684 -1260,-110 -2351,-916 -3186,-1821 -996,-1131 -1900,-2364 -2504,-3751 -353,-859 -1011,-1536 -1421,-2363 -565,-1135 -997,-2328 -1428,-3518 -444,-1263 -994,-2492 -1339,-3788 -644,-2349 -898,-4792 -877,-7222 0,-785 161,-1645 776,-2187 617,-549 1375,-894 2045,-1370 1138,-751 2121,-1745 3377,-2313 633,-303 1423,-201 1969,-690 857,-793 2094,-719 3174,-899 102,-833 -133,-1941 641,-2508 736,-203 1351,521 2110,394 -416,-1020 -1074,-1939 -1366,-3008 -219,-695 609,-1308 1242,-1076 3745,901 7606,294 11392,129 4301,85 8562,-842 12864,-507 -252,-1811 -1024,-3471 -1559,-5201 -960,-105 -1969,-255 -2743,-884 -1273,-1000 -2275,-2499 -2341,-4153 -40,-679 280,-1298 591,-1876 -1024,-2076 -2026,-4162 -3063,-6232 -454,-907 -996,-1795 -1163,-2812 -456,-2583 26,-5376 1512,-7559 742,-1106 1846,-2007 3160,-2313 323,-112 719,-123 949,-412 2316,-2790 5274,-5025 8499,-6666zm13607 10941l0 0c509,588 1161,1090 1450,1838 125,559 146,1206 -192,1703 -622,1055 -1647,2004 -2921,2099 -1228,85 -2396,-534 -3263,-1361 1282,562 2813,103 3706,-939 348,-417 333,-1053 14,-1481 -522,-708 -1319,-1218 -2172,-1416 -1011,-24 -2017,141 -3026,183 -2406,199 -4828,72 -7222,390 -2188,258 -4345,822 -6327,1785 -1216,672 -2115,2302 -1366,3624 674,1060 1910,1679 2432,2857 103,389 46,795 53,1193 -83,2066 387,4094 808,6101 -335,118 -390,459 -483,759 -767,-283 -1245,-1042 -2034,-1283 -556,-229 -1258,-214 -1717,207 -415,592 -157,1366 146,1949 531,1001 1393,2048 2624,2079 753,85 1660,-190 2259,404 -178,207 -381,396 -533,628 897,1681 1357,3549 1837,5380 168,451 -8,1290 639,1364 4426,715 8969,1703 13444,825 1025,-983 1575,-2352 2347,-3527 2140,-3828 3479,-8149 3684,-12535 169,-1492 131,-3003 30,-4498 -117,-2928 -766,-5800 -1456,-8638 -928,25 -1843,190 -2761,310zm15573 16701l0 0c-138,577 -55,1213 -358,1753 -298,535 -668,1279 -1385,1229 36,-745 563,-1312 772,-1995 97,-224 -273,-488 -451,-292 -1215,813 -2021,2090 -3191,2963 681,647 1385,1297 1834,2140 835,-569 1753,-1017 2512,-1692 1127,-987 2096,-2203 2608,-3624 141,-345 124,-816 -275,-975 -721,-102 -1470,76 -2066,493zm-6846 5502l0 0c-1882,1430 -4039,2422 -6059,3633 -1177,396 -1641,1629 -2472,2443 -435,552 -1163,939 -1285,1683 -184,853 -478,1677 -812,2481 245,-74 492,-142 737,-222 493,-127 705,-658 1111,-922 306,-91 636,-104 928,-246 975,-727 1633,-1797 2608,-2525 476,-389 1296,-294 1545,-938 220,-563 802,-785 1326,-977 -298,1063 -1408,1539 -2127,2281 -1521,1525 -3056,3090 -4953,4154 -778,476 -1632,854 -2313,1474 -115,336 -98,700 -134,1053 1474,-1064 2877,-2227 4374,-3265 3155,-2223 6156,-4687 8803,-7503 457,-506 959,-1020 1176,-1682 172,-882 -564,-1571 -983,-2260 -548,382 -928,951 -1470,1338zm-29170 6569l0 0c-956,-28 -1908,67 -2856,162 -3034,58 -6069,11 -9101,96 -1388,194 -2796,38 -4186,196 -1380,188 -2778,150 -4165,110 378,958 655,1954 771,2980 1121,101 2324,355 3063,1288 376,560 1095,222 1624,148 5356,-1104 10428,-3678 15975,-3712 740,-344 1336,-928 1947,-1456 -1032,-55 -2041,226 -3072,188zm3698 404l0 0c-1662,1497 -3276,3079 -4585,4902 -1239,1776 -2404,3781 -2489,5995 -125,1009 734,1891 1700,2007 1861,235 3689,-328 5440,-889 1829,-570 3550,-1427 5363,-2042 759,-303 1617,-595 2098,-1303 403,-802 -17,-1664 -265,-2440 -1298,550 -2688,826 -4058,1133 -1806,396 -3701,671 -5534,281 2,-224 4,-448 6,-668 546,-13 1091,-11 1639,-17 319,-454 685,-886 1165,-1173 1159,-730 2439,-1244 3731,-1694 145,120 289,239 435,363 1007,-346 2068,-476 3124,-531 431,-270 763,-691 1250,-869 331,-71 672,-44 1010,-53 567,-564 1172,-1087 1711,-1679 -3470,426 -7027,-196 -10261,-1478 -478,-118 -1104,-251 -1480,155zm14376 735l0 0c-1239,94 -1838,1328 -2732,2020 510,427 1025,850 1516,1301 630,-1102 1531,-2109 1768,-3390 -139,17 -414,51 -552,69zm-21833 2043l0 0c-2142,527 -4305,1001 -6377,1773 -1733,634 -3570,1161 -5435,907 268,875 659,1704 1010,2546 882,70 1741,395 2367,1040 2087,2037 4231,4317 7175,5021 286,-487 967,-924 717,-1559 -414,-1463 -212,-3035 341,-4434 856,-2282 2385,-4213 3967,-6032 -1290,32 -2508,502 -3765,738zm-18649 899l0 0c226,2855 1740,5372 2895,7930 687,1542 1730,2961 3185,3853 659,-222 1389,-255 2034,34 1135,447 1819,1586 2087,2728 91,5 271,13 360,19 99,-478 219,-975 72,-1453 -434,-1928 -1912,-3366 -2600,-5185 -708,-1766 -1347,-3561 -2100,-5310 -321,-691 -786,-1372 -1494,-1704 -625,-231 -1303,-214 -1953,-303 -854,-91 -1653,-429 -2486,-609zm36544 -36l0 0c-17,404 -44,810 -105,1214 -637,161 -812,-493 -1079,-913 -478,391 -960,799 -1292,1328 -17,268 125,516 193,774 321,883 418,1831 773,2704 823,-266 1726,-433 2359,-1074 651,-626 1433,-1463 1154,-2445 -330,-814 -1093,-1535 -2003,-1588zm-5128 1499l0 0c-391,89 -213,572 -285,853 839,-334 1986,-428 2440,-1307 -734,59 -1465,199 -2155,454zm-4491 1711l0 0c1084,-74 2163,-266 3206,-573 274,-363 42,-913 90,-1343 -1150,529 -2377,1024 -3296,1916zm-28882 -1157l0 0c318,424 711,792 1016,1231 928,1246 1402,2762 2277,4033 -588,-1440 -1368,-2798 -1859,-4280 -120,-668 -884,-825 -1434,-984zm-3836 1676l0 0c-31,327 -46,655 -38,985 451,30 903,34 1354,13 116,-614 292,-1214 518,-1794 -491,501 -1149,730 -1834,796zm2794 -794l0 0c-292,980 -671,1963 -692,2999 0,761 508,1438 1178,1764 1056,524 2225,757 3352,1083 -742,-1305 -1453,-2627 -2239,-3906 -470,-692 -867,-1485 -1599,-1940zm-6476 3367l0 0c-1319,929 -1884,2622 -1767,4185 232,3876 2025,7395 3645,10845 552,-732 1206,-1413 2058,-1787 1772,-827 3559,-1620 5314,-2485 292,-117 461,-385 616,-643 -2711,-1375 -4441,-4014 -5708,-6685 -787,-1617 -1512,-3324 -1615,-5143 -863,548 -1695,1140 -2543,1713zm3837 -564l0 0c433,1795 1275,3451 2049,5117 374,-641 719,-1300 1163,-1897 -702,-414 -1368,-934 -1804,-1628 -292,-493 -277,-1077 -279,-1628 -376,16 -753,25 -1129,36zm14113 4l0 0c94,296 157,617 341,879 279,195 656,34 973,62 -351,-425 -831,-700 -1314,-941zm26502 42l0 0c-712,546 -1334,1203 -2051,1743 -148,169 -554,321 -385,602 313,582 571,1335 1246,1582 609,-302 1195,-692 1690,-1155 353,-979 680,-1968 1135,-2907 -546,46 -1100,15 -1635,135zm-25083 2015l0 0c506,1479 1439,2760 2100,4169 191,425 233,896 282,1357 1360,-249 2592,-928 3794,-1580 -614,-319 -1307,-454 -1908,-801 -990,-554 -1766,-1396 -2639,-2106 -506,-400 -948,-958 -1629,-1039zm15844 1842l0 0c-1070,362 -2252,493 -3185,1178 -2434,1618 -5293,2365 -8012,3356 -1650,567 -3223,1331 -4824,2020 -1628,560 -3335,1080 -5078,842 -89,1038 332,2123 1261,2660 695,-72 1345,-357 2007,-563 3734,-1359 7198,-3332 10817,-4950 3696,-1800 7389,-3625 10890,-5786 -1315,342 -2563,892 -3876,1243zm-127 2546l0 0c1349,709 2637,1551 4084,2058 1008,353 1958,846 2958,1227 998,-1756 1957,-3570 2439,-5547 -567,291 -1191,854 -1863,545 -844,-347 -918,-1383 -1309,-2096 -1993,1445 -4129,2674 -6309,3813zm-27295 -2903l0 0c-484,808 -915,1649 -1254,2529 64,161 155,311 269,451 1072,-796 2258,-1438 3273,-2312 -774,-186 -1541,-398 -2288,-668zm3792 146l0 0c-224,178 42,630 298,448 193,-184 -40,-632 -298,-448zm16539 524l0 0c-349,476 -678,969 -970,1483 674,-214 1359,-447 1916,-897 -317,-197 -631,-393 -946,-586zm-17241 582l0 0c-408,292 -783,630 -1197,916 397,685 480,1478 713,2222 533,-729 1025,-1539 1169,-2442 146,-411 -315,-747 -685,-696zm1523 -9l0 0c105,685 18,1392 -277,2020 -483,1066 -1111,2056 -1718,3054 360,156 719,651 1136,380 452,-199 376,-778 577,-1161 457,-1131 1153,-2212 1121,-3481 -302,-249 -577,-524 -839,-812zm-5000 2456l0 0c673,746 1354,1592 2305,1975 -207,-1011 -499,-2003 -647,-3026 -581,306 -1108,698 -1658,1051zm5782 2167l0 0c249,-89 497,-177 747,-264 257,-922 680,-1783 1044,-2665 -256,-95 -510,-190 -765,-285 -131,1135 -734,2123 -1026,3214zm2419 -2692l0 0c-4,97 -12,292 -15,389 903,-80 1722,322 2540,641 -543,-846 -1567,-1157 -2525,-1030zm14556 2104l0 0c1444,-15 2904,-95 4327,216 2294,522 4456,1548 6334,2963 321,-448 594,-926 841,-1415 -1948,-645 -3965,-1205 -5699,-2339 -645,-381 -1180,-916 -1817,-1307 -1378,510 -2660,1254 -3986,1882zm-14839 -983l0 0c-102,359 -197,721 -267,1089 789,4 1383,539 2014,926 545,-125 1084,-306 1581,-564 28,-104 83,-315 112,-419 -515,-127 -1023,-279 -1501,-508 -609,-298 -1298,-332 -1939,-524zm15789 2028l0 0c-937,137 -1899,353 -2682,914 -994,662 -1614,1823 -1673,3011 2912,2013 6710,1127 9836,2582 178,1459 -776,2694 -1440,3900 575,740 1315,1332 2040,1918 1576,-1172 3242,-2348 4306,-4039 489,-753 751,-1796 233,-2600 -719,-1194 -1696,-2226 -2804,-3062 -1718,-1233 -3726,-1966 -5716,-2628 -679,-254 -1409,-98 -2100,4zm-5852 1036l0 0c-19,650 108,1369 601,1836 196,-1168 949,-2102 1837,-2836 -822,313 -1620,679 -2438,1000zm-11974 -271l0 0c-2260,620 -4252,1902 -6319,2965 -1120,607 -2366,967 -3409,1713 -541,377 -1008,914 -1150,1572 243,824 465,1668 859,2434 596,955 1277,1869 2076,2666 707,736 1813,1170 2805,768 2118,-823 3322,-2920 5208,-4094 2157,-1480 4746,-2794 5811,-5340 -1338,362 -2689,673 -4032,1013 -645,173 -1166,-412 -1386,-949 -296,-789 -363,-1684 -69,-2485 575,-55 1267,-17 1664,-514 -696,-78 -1389,70 -2058,251zm12340 3970l0 0c-520,1239 -1258,2368 -2136,3383 -821,959 -1523,2012 -2299,3008 -114,192 -418,469 -184,687 535,535 1102,1074 1775,1430 560,-195 1000,-620 1499,-929 2229,-1486 4384,-3077 6575,-4614 330,-254 769,-413 992,-774 350,355 524,-552 84,-281 -909,-98 -1800,-314 -2705,-432 -708,114 -1434,262 -2142,57 176,-196 389,-349 611,-490 -708,-313 -1395,-669 -2070,-1045zm7124 8271l0 0c-611,738 -1768,1097 -1880,2167 -152,1798 91,3633 667,5342 262,-93 541,-207 640,-491 559,-1211 878,-2520 1075,-3834 107,-490 169,-1027 476,-1436 735,-706 1710,-1095 2431,-1822 -543,-574 -983,-1259 -1624,-1732 -915,213 -1116,1269 -1785,1806zm-12601 -514l0 0c-793,808 -1591,1632 -2551,2243 -797,498 -1825,462 -2586,1026 -575,590 -618,1480 -662,2257 4,1150 -332,2292 -99,3440 448,-448 803,-973 1161,-1491 767,-1129 2043,-1757 2863,-2840 960,-1224 2240,-2121 3426,-3104 -461,-565 -954,-1108 -1552,-1531zm-15633 636l0 0c443,711 1149,1231 1969,1423 -642,-498 -1379,-858 -1969,-1423z"/>
    </g>
    <g>
     <path class="fil1" d="M12660 37990c335,-151 688,-388 1073,-248 2391,607 4578,1800 6733,2971 1085,571 2411,960 3098,2050 516,1414 -402,2751 -1089,3922 -685,1138 -850,2688 -2024,3468 -1303,377 -2512,-471 -3589,-1088 -2078,-1320 -4366,-2278 -6414,-3646 -632,-444 -765,-1320 -528,-2014 461,-1416 1395,-2601 2284,-3768 401,-453 383,-1083 456,-1647zm1227 1287l0 0c309,1811 1381,3496 2859,4581 1531,956 3371,226 4870,-419 -258,-892 -1241,-1106 -1939,-1546 -1876,-975 -3713,-2125 -5790,-2616zm-2379 3991l0 0c844,-336 1671,-709 2499,-1083 -410,-567 -719,-1197 -1012,-1829 -531,950 -1079,1899 -1487,2912zm-53 1337l0 0c2280,1116 4621,2129 6788,3465 339,254 762,269 1170,265 -70,-1074 -497,-2087 -525,-3166 -793,-76 -1628,36 -2370,-313 -852,-313 -1313,-1152 -1878,-1802 -1060,518 -2223,842 -3185,1551zm8237 498l0 0c231,846 336,1728 685,2540 825,-888 1239,-2062 1421,-3241 -691,268 -1389,513 -2106,701z"/>
    </g>
    <path class="fil1" d="M53006 59611c1932,8 3628,-1316 5551,-1235 -1049,765 -2320,1110 -3540,1493 -1515,418 -3060,890 -4642,888 -430,-336 -569,-876 -647,-1387 490,143 932,414 1417,568 636,-16 1214,-372 1861,-327z"/>
    <path class="fil1" d="M25884 67435c520,-48 947,398 1042,874 -158,406 -651,564 -991,801 -1407,717 -2817,1500 -4365,1861 -518,-947 -1182,-1946 -1036,-3077 706,421 956,1244 1406,1887 709,-123 1474,-229 2041,-717 408,-392 991,-411 1501,-574 243,-300 288,-700 402,-1055z"/>
    <g>
     <path class="fil1" d="M9254 68010c1108,-220 2114,379 3136,690 1472,387 3045,440 4441,1095 531,227 873,776 848,1354 165,1461 -571,2778 -982,4130 -754,2497 -1476,5007 -2391,7450 -307,926 -1362,1353 -2276,1197 -1842,-250 -3472,-1218 -5156,-1939 -625,-292 -1558,224 -1979,-467 -144,-992 91,-1984 254,-2959 330,-2066 981,-4062 1601,-6053 368,-1218 621,-2514 1362,-3576 287,-399 640,-816 1142,-922zm913 1694l0 0c633,846 1286,1709 1614,2731 1106,-459 2235,-872 3256,-1511 -8,-59 -25,-173 -33,-230 -840,-252 -1711,-374 -2572,-524 -763,-127 -1484,-468 -2265,-466zm-1624 1728l0 0c-471,1660 -1042,3289 -1476,4959 -334,1347 -772,2701 -675,4109 1635,-421 2773,-1776 3847,-2988 732,-795 1275,-1840 1168,-2948 -123,-1705 -1136,-3149 -2073,-4513 -360,396 -654,857 -791,1381zm3515 1740l0 0c194,950 391,1940 152,2904 -186,1081 -1070,1808 -1700,2641 888,1079 1476,2382 2510,3348 453,-507 550,-1186 704,-1821 635,-2440 1451,-4828 2235,-7222 163,-458 246,-937 278,-1417 -1453,352 -2705,1263 -4179,1567zm-2248 6294l0 0c-601,672 -1347,1176 -2039,1743 1320,389 2578,1059 3972,1137 -620,-975 -1326,-1895 -1933,-2880z"/>
    </g>
    <path class="fil1" d="M54594 69512c177,29 355,57 533,89 29,93 89,283 118,378 -182,-44 -364,-84 -546,-124 -27,-85 -78,-258 -105,-343z"/>
    <path class="fil1" d="M56063 70218c933,182 1741,723 2500,1269 802,647 1648,1377 1963,2396 150,499 -275,895 -529,1269 -355,-666 -404,-1501 -975,-2039 -516,-499 -1142,-875 -1611,-1427 -426,-541 -1373,-637 -1348,-1468z"/>
    <path class="fil1" d="M45735 77364c747,-742 1565,-1470 2567,-1838 -93,645 -759,897 -1182,1307 -1199,916 -2237,2142 -3709,2623 -25,-804 391,-1597 1074,-2020 385,-216 836,-87 1250,-72z"/>
    <path class="fil1" d="M24008 76121c125,0 374,0 499,0 115,321 207,657 381,955 315,339 877,356 1135,768 330,442 593,1019 1181,1165 533,-171 896,-736 1473,-784 259,196 459,456 673,698 -286,490 -611,1029 -1205,1175 -690,286 -1223,-402 -1762,-719 -1072,-805 -2462,-1744 -2375,-3258z"/>
    <path class="fil1" d="M29321 77666c285,-251 640,-401 968,-581 -157,385 -313,791 -617,1093 -223,-84 -328,-290 -351,-512z"/>
   </g>
   <g>
    <path class="fil2" d="M72322 19320c918,-120 1833,-285 2761,-310 690,2838 1339,5710 1456,8638 -208,1489 -165,3003 -30,4498 -205,4386 -1544,8707 -3684,12535 -772,1175 -1322,2544 -2347,3527 -4475,878 -9018,-110 -13444,-825 -647,-74 -471,-913 -639,-1364 -480,-1831 -940,-3699 -1837,-5380 152,-232 355,-421 533,-628 -599,-594 -1506,-319 -2259,-404 -1231,-31 -2093,-1078 -2624,-2079 -303,-583 -561,-1357 -146,-1949 459,-421 1161,-436 1717,-207 789,241 1267,1000 2034,1283 93,-300 148,-641 483,-759 -421,-2007 -891,-4035 -808,-6101 -7,-398 50,-804 -53,-1193 -522,-1178 -1758,-1797 -2432,-2857 -749,-1322 150,-2952 1366,-3624 1982,-963 4139,-1527 6327,-1785 2394,-318 4816,-191 7222,-390 1009,-42 2015,-207 3026,-183 853,198 1650,708 2172,1416 319,428 334,1064 -14,1481 -893,1042 -2424,1501 -3706,939 867,827 2035,1446 3263,1361 1274,-95 2299,-1044 2921,-2099 338,-497 317,-1144 192,-1703 -289,-748 -941,-1250 -1450,-1838z"/>
    <path class="fil2" d="M87895 36021c596,-417 1345,-595 2066,-493 399,159 416,630 275,975 -512,1421 -1481,2637 -2608,3624 -759,675 -1677,1123 -2512,1692 -449,-843 -1153,-1493 -1834,-2140 1170,-873 1976,-2150 3191,-2963 178,-196 548,68 451,292 -209,683 -736,1250 -772,1995 717,50 1087,-694 1385,-1229 303,-540 220,-1176 358,-1753z"/>
    <path class="fil2" d="M66015 52137c910,53 1673,774 2003,1588 279,982 -503,1819 -1154,2445 -633,641 -1536,808 -2359,1074 -355,-873 -452,-1821 -773,-2704 -68,-258 -210,-506 -193,-774 332,-529 814,-937 1292,-1328 267,420 442,1074 1079,913 61,-404 88,-810 105,-1214z"/>
    <path class="fil2" d="M60887 53636c690,-255 1421,-395 2155,-454 -454,879 -1601,973 -2440,1307 72,-281 -106,-764 285,-853z"/>
    <path class="fil2" d="M24511 80872c590,565 1327,925 1969,1423 -820,-192 -1526,-712 -1969,-1423z"/>
   </g>
   <g>
    <path class="fil3" d="M76509 32146c-135,-1495 -178,-3009 30,-4498 101,1495 139,3006 -30,4498z"/>
    <path class="fil3" d="M13887 39277c2077,491 3914,1641 5790,2616 698,440 1681,654 1939,1546 -1499,645 -3339,1375 -4870,419 -1478,-1085 -2550,-2770 -2859,-4581z"/>
    <path class="fil3" d="M11508 43268c408,-1013 956,-1962 1487,-2912 293,632 602,1262 1012,1829 -828,374 -1655,747 -2499,1083z"/>
    <path class="fil3" d="M11455 44605c962,-709 2125,-1033 3185,-1551 565,650 1026,1489 1878,1802 742,349 1577,237 2370,313 28,1079 455,2092 525,3166 -408,4 -831,-11 -1170,-265 -2167,-1336 -4508,-2349 -6788,-3465z"/>
    <path class="fil3" d="M19692 45103c717,-188 1415,-433 2106,-701 -182,1179 -596,2353 -1421,3241 -349,-812 -454,-1694 -685,-2540z"/>
    <path class="fil3" d="M27514 54190c550,159 1314,316 1434,984 491,1482 1271,2840 1859,4280 -875,-1271 -1349,-2787 -2277,-4033 -305,-439 -698,-807 -1016,-1231z"/>
    <path class="fil3" d="M23678 55866c685,-66 1343,-295 1834,-796 -226,580 -402,1180 -518,1794 -451,21 -903,17 -1354,-13 -8,-330 7,-658 38,-985z"/>
    <path class="fil3" d="M26472 55072c732,455 1129,1248 1599,1940 786,1279 1497,2601 2239,3906 -1127,-326 -2296,-559 -3352,-1083 -670,-326 -1178,-1003 -1178,-1764 21,-1036 400,-2019 692,-2999z"/>
    <path class="fil3" d="M23833 57875c376,-11 753,-20 1129,-36 2,551 -13,1135 279,1628 436,694 1102,1214 1804,1628 -444,597 -789,1256 -1163,1897 -774,-1666 -1616,-3322 -2049,-5117z"/>
    <path class="fil3" d="M27787 61421c747,270 1514,482 2288,668 -1015,874 -2201,1516 -3273,2312 -114,-140 -205,-290 -269,-451 339,-880 770,-1721 1254,-2529z"/>
    <path class="fil3" d="M31579 61567c258,-184 491,264 298,448 -256,182 -522,-270 -298,-448z"/>
    <path class="fil3" d="M30877 62673c370,-51 831,285 685,696 -144,903 -636,1713 -1169,2442 -233,-744 -316,-1537 -713,-2222 414,-286 789,-624 1197,-916z"/>
    <path class="fil3" d="M32400 62664c262,288 537,563 839,812 32,1269 -664,2350 -1121,3481 -201,383 -125,962 -577,1161 -417,271 -776,-224 -1136,-380 607,-998 1235,-1988 1718,-3054 295,-628 382,-1335 277,-2020z"/>
    <path class="fil3" d="M27400 65120c550,-353 1077,-745 1658,-1051 148,1023 440,2015 647,3026 -951,-383 -1632,-1229 -2305,-1975z"/>
    <path class="fil3" d="M33182 67287c292,-1091 895,-2079 1026,-3214 255,95 509,190 765,285 -364,882 -787,1743 -1044,2665 -250,87 -498,175 -747,264z"/>
    <path class="fil3" d="M35601 64595c958,-127 1982,184 2525,1030 -818,-319 -1637,-721 -2540,-641 3,-97 11,-292 15,-389z"/>
    <path class="fil3" d="M35318 65716c641,192 1330,226 1939,524 478,229 986,381 1501,508 -29,104 -84,315 -112,419 -497,258 -1036,439 -1581,564 -631,-387 -1225,-922 -2014,-926 70,-368 165,-730 267,-1089z"/>
    <path class="fil3" d="M10167 69704c781,-2 1502,339 2265,466 861,150 1732,272 2572,524 8,57 25,171 33,230 -1021,639 -2150,1052 -3256,1511 -328,-1022 -981,-1885 -1614,-2731z"/>
    <path class="fil3" d="M8543 71432c137,-524 431,-985 791,-1381 937,1364 1950,2808 2073,4513 107,1108 -436,2153 -1168,2948 -1074,1212 -2212,2567 -3847,2988 -97,-1408 341,-2762 675,-4109 434,-1670 1005,-3299 1476,-4959z"/>
    <path class="fil3" d="M12058 73172c1474,-304 2726,-1215 4179,-1567 -32,480 -115,959 -278,1417 -784,2394 -1600,4782 -2235,7222 -154,635 -251,1314 -704,1821 -1034,-966 -1622,-2269 -2510,-3348 630,-833 1514,-1560 1700,-2641 239,-964 42,-1954 -152,-2904z"/>
    <path class="fil3" d="M9810 79466c607,985 1313,1905 1933,2880 -1394,-78 -2652,-748 -3972,-1137 692,-567 1438,-1071 2039,-1743z"/>
   </g>
   <g>
    <path class="fil4" d="M81049 41523c542,-387 922,-956 1470,-1338 419,689 1155,1378 983,2260 -217,662 -719,1176 -1176,1682 -2647,2816 -5648,5280 -8803,7503 -1497,1038 -2900,2201 -4374,3265 36,-353 19,-717 134,-1053 681,-620 1535,-998 2313,-1474 1897,-1064 3432,-2629 4953,-4154 719,-742 1829,-1218 2127,-2281 -524,192 -1106,414 -1326,977 -249,644 -1069,549 -1545,938 -975,728 -1633,1798 -2608,2525 -292,142 -622,155 -928,246 -406,264 -618,795 -1111,922 -245,80 -492,148 -737,222 334,-804 628,-1628 812,-2481 122,-744 850,-1131 1285,-1683 831,-814 1295,-2047 2472,-2443 2020,-1211 4177,-2203 6059,-3633z"/>
    <g>
     <path class="fil4" d="M55577 48496c376,-406 1002,-273 1480,-155 3234,1282 6791,1904 10261,1478 -539,592 -1144,1115 -1711,1679 -338,9 -679,-18 -1010,53 -487,178 -819,599 -1250,869 -1056,55 -2117,185 -3124,531 -146,-124 -290,-243 -435,-363 -1292,450 -2572,964 -3731,1694 -480,287 -846,719 -1165,1173 -548,6 -1093,4 -1639,17 -2,220 -4,444 -6,668 1833,390 3728,115 5534,-281 1370,-307 2760,-583 4058,-1133 248,776 668,1638 265,2440 -481,708 -1339,1000 -2098,1303 -1813,615 -3534,1472 -5363,2042 -1751,561 -3579,1124 -5440,889 -966,-116 -1825,-998 -1700,-2007 85,-2214 1250,-4219 2489,-5995 1309,-1823 2923,-3405 4585,-4902zm-2571 11115l0 0c-647,-45 -1225,311 -1861,327 -485,-154 -927,-425 -1417,-568 78,511 217,1051 647,1387 1582,2 3127,-470 4642,-888 1220,-383 2491,-728 3540,-1493 -1923,-81 -3619,1243 -5551,1235z"/>
    </g>
    <path class="fil4" d="M56396 55347c919,-892 2146,-1387 3296,-1916 -48,430 184,980 -90,1343 -1043,307 -2122,499 -3206,573z"/>
    <path class="fil4" d="M55082 64324c2180,-1139 4316,-2368 6309,-3813 391,713 465,1749 1309,2096 672,309 1296,-254 1863,-545 -482,1977 -1441,3791 -2439,5547 -1000,-381 -1950,-874 -2958,-1227 -1447,-507 -2735,-1349 -4084,-2058z"/>
    <g>
     <path class="fil4" d="M51107 67744c691,-102 1421,-258 2100,-4 1990,662 3998,1395 5716,2628 1108,836 2085,1868 2804,3062 518,804 256,1847 -233,2600 -1064,1691 -2730,2867 -4306,4039 -725,-586 -1465,-1178 -2040,-1918 664,-1206 1618,-2441 1440,-3900 -3126,-1455 -6924,-569 -9836,-2582 59,-1188 679,-2349 1673,-3011 783,-561 1745,-777 2682,-914zm3487 1768l0 0c27,85 78,258 105,343 182,40 364,80 546,124 -29,-95 -89,-285 -118,-378 -178,-32 -356,-60 -533,-89zm1469 706l0 0c-25,831 922,927 1348,1468 469,552 1095,928 1611,1427 571,538 620,1373 975,2039 254,-374 679,-770 529,-1269 -315,-1019 -1161,-1749 -1963,-2396 -759,-546 -1567,-1087 -2500,-1269z"/>
    </g>
    <g>
     <path class="fil4" d="M45621 72479c675,376 1362,732 2070,1045 -222,141 -435,294 -611,490 708,205 1434,57 2142,-57 905,118 1796,334 2705,432 -21,71 -63,211 -84,281 -223,361 -662,520 -992,774 -2191,1537 -4346,3128 -6575,4614 -499,309 -939,734 -1499,929 -673,-356 -1240,-895 -1775,-1430 -234,-218 70,-495 184,-687 776,-996 1478,-2049 2299,-3008 878,-1015 1616,-2144 2136,-3383zm114 4885l0 0c-414,-15 -865,-144 -1250,72 -683,423 -1099,1216 -1074,2020 1472,-481 2510,-1707 3709,-2623 423,-410 1089,-662 1182,-1307 -1002,368 -1820,1096 -2567,1838z"/>
    </g>
   </g>
   <g>
    <path class="fil5" d="M51879 48092c1031,38 2040,-243 3072,-188 -611,528 -1207,1112 -1947,1456 -5547,34 -10619,2608 -15975,3712 -529,74 -1248,412 -1624,-148 -739,-933 -1942,-1187 -3063,-1288 -116,-1026 -393,-2022 -771,-2980 1387,40 2785,78 4165,-110 1390,-158 2798,-2 4186,-196 3032,-85 6067,-38 9101,-96 948,-95 1900,-190 2856,-162z"/>
    <path class="fil5" d="M48120 51274c1257,-236 2475,-706 3765,-738 -1582,1819 -3111,3750 -3967,6032 -553,1399 -755,2971 -341,4434 250,635 -431,1072 -717,1559 -2944,-704 -5088,-2984 -7175,-5021 -626,-645 -1485,-970 -2367,-1040 -351,-842 -742,-1671 -1010,-2546 1865,254 3702,-273 5435,-907 2072,-772 4235,-1246 6377,-1773z"/>
    <path class="fil5" d="M48118 62091c315,193 629,389 946,586 -557,450 -1242,683 -1916,897 292,-514 621,-1007 970,-1483z"/>
    <path class="fil5" d="M50157 66699c1326,-628 2608,-1372 3986,-1882 637,391 1172,926 1817,1307 1734,1134 3751,1694 5699,2339 -247,489 -520,967 -841,1415 -1878,-1415 -4040,-2441 -6334,-2963 -1423,-311 -2883,-231 -4327,-216z"/>
    <path class="fil5" d="M45255 68780c818,-321 1616,-687 2438,-1000 -888,734 -1641,1668 -1837,2836 -493,-467 -620,-1186 -601,-1836z"/>
    <path class="fil5" d="M52745 80750c669,-537 870,-1593 1785,-1806 641,473 1081,1158 1624,1732 -721,727 -1696,1116 -2431,1822 -307,409 -369,946 -476,1436 -197,1314 -516,2623 -1075,3834 -99,284 -378,398 -640,491 -576,-1709 -819,-3544 -667,-5342 112,-1070 1269,-1429 1880,-2167z"/>
    <path class="fil5" d="M40144 80236c598,423 1091,966 1552,1531 -1186,983 -2466,1880 -3426,3104 -820,1083 -2096,1711 -2863,2840 -358,518 -713,1043 -1161,1491 -233,-1148 103,-2290 99,-3440 44,-777 87,-1667 662,-2257 761,-564 1789,-528 2586,-1026 960,-611 1758,-1435 2551,-2243z"/>
   </g>
   <g>
    <path class="fil6" d="M69953 49231c138,-18 413,-52 552,-69 -237,1281 -1138,2288 -1768,3390 -491,-451 -1006,-874 -1516,-1301 894,-692 1493,-1926 2732,-2020z"/>
    <path class="fil6" d="M29471 52173c833,180 1632,518 2486,609 650,89 1328,72 1953,303 708,332 1173,1013 1494,1704 753,1749 1392,3544 2100,5310 688,1819 2166,3257 2600,5185 147,478 27,975 -72,1453 -89,-6 -269,-14 -360,-19 -268,-1142 -952,-2281 -2087,-2728 -645,-289 -1375,-256 -2034,-34 -1455,-892 -2498,-2311 -3185,-3853 -1155,-2558 -2669,-5075 -2895,-7930z"/>
    <g>
     <path class="fil6" d="M19996 58439c848,-573 1680,-1165 2543,-1713 103,1819 828,3526 1615,5143 1267,2671 2997,5310 5708,6685 -155,258 -324,526 -616,643 -1755,865 -3542,1658 -5314,2485 -852,374 -1506,1055 -2058,1787 -1620,-3450 -3413,-6969 -3645,-10845 -117,-1563 448,-3256 1767,-4185zm5888 8996l0 0c-114,355 -159,755 -402,1055 -510,163 -1093,182 -1501,574 -567,488 -1332,594 -2041,717 -450,-643 -700,-1466 -1406,-1887 -146,1131 518,2130 1036,3077 1548,-361 2958,-1144 4365,-1861 340,-237 833,-395 991,-801 -95,-476 -522,-922 -1042,-874z"/>
    </g>
    <path class="fil6" d="M64448 57921c535,-120 1089,-89 1635,-135 -455,939 -782,1928 -1135,2907 -495,463 -1081,853 -1690,1155 -675,-247 -933,-1000 -1246,-1582 -169,-281 237,-433 385,-602 717,-540 1339,-1197 2051,-1743z"/>
    <path class="fil6" d="M55209 61778c1313,-351 2561,-901 3876,-1243 -3501,2161 -7194,3986 -10890,5786 -3619,1618 -7083,3591 -10817,4950 -662,206 -1312,491 -2007,563 -929,-537 -1350,-1622 -1261,-2660 1743,238 3450,-282 5078,-842 1601,-689 3174,-1453 4824,-2020 2719,-991 5578,-1738 8012,-3356 933,-685 2115,-816 3185,-1178z"/>
    <g>
     <path class="fil6" d="M33281 68509c669,-181 1362,-329 2058,-251 -397,497 -1089,459 -1664,514 -294,801 -227,1696 69,2485 220,537 741,1122 1386,949 1343,-340 2694,-651 4032,-1013 -1065,2546 -3654,3860 -5811,5340 -1886,1174 -3090,3271 -5208,4094 -992,402 -2098,-32 -2805,-768 -799,-797 -1480,-1711 -2076,-2666 -394,-766 -616,-1610 -859,-2434 142,-658 609,-1195 1150,-1572 1043,-746 2289,-1106 3409,-1713 2067,-1063 4059,-2345 6319,-2965zm-9273 7612l0 0c-87,1514 1303,2453 2375,3258 539,317 1072,1005 1762,719 594,-146 919,-685 1205,-1175 -214,-242 -414,-502 -673,-698 -577,48 -940,613 -1473,784 -588,-146 -851,-723 -1181,-1165 -258,-412 -820,-429 -1135,-768 -174,-298 -266,-634 -381,-955 -125,0 -374,0 -499,0zm5313 1545l0 0c23,222 128,428 351,512 304,-302 460,-708 617,-1093 -328,180 -683,330 -968,581z"/>
    </g>
   </g>
  </g>
 </g>
</svg>
